<svg xmlns="http://www.w3.org/2000/svg" width="120" height="120" viewBox="0 0 120 120">
  <title>Daisy clip</title>
  <desc>Editable white daisy with a honey center and mint leaf, clipped to the right ear.</desc>
  <g id="daisy-clip" stroke="#706355" stroke-width="1.7" stroke-linecap="round" stroke-linejoin="round">
    <path fill="#9bc7a0" stroke="#527e60" d="M98 37 Q108 33 109 43 Q100 46 98 37 Z"/>
    <g id="daisy-petals" fill="#fff9ee">
      <ellipse cx="97" cy="23" rx="3.5" ry="6"/>
      <ellipse cx="97" cy="23" rx="3.5" ry="6" transform="rotate(60 97 31)"/>
      <ellipse cx="97" cy="23" rx="3.5" ry="6" transform="rotate(120 97 31)"/>
      <ellipse cx="97" cy="23" rx="3.5" ry="6" transform="rotate(180 97 31)"/>
      <ellipse cx="97" cy="23" rx="3.5" ry="6" transform="rotate(240 97 31)"/>
      <ellipse cx="97" cy="23" rx="3.5" ry="6" transform="rotate(300 97 31)"/>
    </g>
    <circle cx="97" cy="31" r="5.1" fill="#f4ca68" stroke="#ad8543"/>
    <path fill="none" stroke="#fff0b0" stroke-width="1.6" d="M94 30 Q95 28 97 28"/>
  </g>
</svg>
