<svg xmlns="http://www.w3.org/2000/svg" width="120" height="120" viewBox="0 0 120 120">
  <title>Royal cape</title>
  <desc>Editable mulberry short shoulder cape with ivory trim, gold clasp, and a front fastening. It follows the cat's cropped silhouette instead of hanging below it.</desc>
  <g id="royal-cape">
    <g id="royal-cape-back" stroke="#56364c" stroke-width="2.2" stroke-linecap="round" stroke-linejoin="round">
      <path fill="#a85d8e" d="M26 57 Q17 64 8 76 L7 99 Q16 104 30 102 L42 79 Z M94 57 Q103 64 112 76 L113 99 Q104 104 90 102 L78 79 Z"/>
      <path fill="#773f70" stroke="none" d="M13 75 L10 97 Q19 101 28 99 L38 80 Z M107 75 L110 97 Q101 101 92 99 L82 80 Z"/>
      <path fill="none" stroke="#fff0d8" stroke-width="2.2" d="M8 96 Q18 102 30 99 M112 96 Q102 102 90 99"/>
    </g>
    <g id="royal-cape-front" data-render-layer="front" data-clip-to-body="true" stroke="#56364c" stroke-width="1.8" stroke-linecap="round" stroke-linejoin="round">
      <path fill="#773f70" d="M8 70 Q24 78 46 82 L41 94 Q20 91 5 83 Z M112 70 Q96 78 74 82 L79 94 Q100 91 115 83 Z"/>
      <path fill="none" stroke="#fff0d8" stroke-width="3.2" d="M9 72 Q24 80 44 83 M111 72 Q96 80 76 83"/>
      <path fill="none" stroke="#efd081" stroke-width="1.5" d="M44 83 Q60 90 76 83"/>
      <circle cx="60" cy="86.5" r="3.2" fill="#efd081" stroke="#775731" stroke-width="1.3"/>
    </g>
  </g>
</svg>
